<mxfile host="app.diagrams.net" modified="2023-07-21T08:19:32.046Z" agent="Mozilla/5.0 (Windows NT 10.0; Win64; x64) AppleWebKit/537.36 (KHTML, like Gecko) Chrome/115.0.0.0 Safari/537.36" etag="NbIMWGhIKTLLSwHphb37" version="21.6.5" type="github">
  <diagram name="第 1 页" id="C635Q8EO_V4iNNacHxs6">
    <mxGraphModel dx="880" dy="446" grid="1" gridSize="10" guides="1" tooltips="1" connect="1" arrows="1" fold="1" page="1" pageScale="1" pageWidth="827" pageHeight="1169" math="0" shadow="0">
      <root>
        <mxCell id="0" />
        <mxCell id="1" parent="0" />
        <mxCell id="OQFdeBzDbGrKhD_iRUs_-1" value="目录项" style="rounded=1;whiteSpace=wrap;html=1;fillColor=#dae8fc;strokeColor=#6c8ebf;fontSize=14;" vertex="1" parent="1">
          <mxGeometry x="100" y="240" width="160" height="50" as="geometry" />
        </mxCell>
        <mxCell id="OQFdeBzDbGrKhD_iRUs_-3" value="父目录" style="rounded=1;whiteSpace=wrap;html=1;fillColor=#dae8fc;strokeColor=#6c8ebf;fontSize=14;" vertex="1" parent="1">
          <mxGeometry x="100" y="290" width="160" height="50" as="geometry" />
        </mxCell>
        <mxCell id="OQFdeBzDbGrKhD_iRUs_-4" value="/etc" style="rounded=1;whiteSpace=wrap;html=1;fillColor=#dae8fc;strokeColor=#6c8ebf;fontSize=14;" vertex="1" parent="1">
          <mxGeometry x="100" y="450" width="160" height="50" as="geometry" />
        </mxCell>
        <mxCell id="OQFdeBzDbGrKhD_iRUs_-5" value="索引节点指针" style="rounded=1;whiteSpace=wrap;html=1;fillColor=#dae8fc;strokeColor=#6c8ebf;fontSize=14;" vertex="1" parent="1">
          <mxGeometry x="100" y="500" width="160" height="50" as="geometry" />
        </mxCell>
        <mxCell id="OQFdeBzDbGrKhD_iRUs_-6" value="子目录/&lt;br style=&quot;font-size: 14px;&quot;&gt;文件列表" style="rounded=1;whiteSpace=wrap;html=1;fillColor=#dae8fc;strokeColor=#6c8ebf;fontSize=14;" vertex="1" parent="1">
          <mxGeometry x="100" y="340" width="90" height="110" as="geometry" />
        </mxCell>
        <mxCell id="OQFdeBzDbGrKhD_iRUs_-7" value="file1" style="rounded=1;whiteSpace=wrap;html=1;fillColor=#dae8fc;strokeColor=#6c8ebf;fontSize=14;" vertex="1" parent="1">
          <mxGeometry x="190" y="340" width="70" height="60" as="geometry" />
        </mxCell>
        <mxCell id="OQFdeBzDbGrKhD_iRUs_-8" value="file2" style="rounded=1;whiteSpace=wrap;html=1;fillColor=#dae8fc;strokeColor=#6c8ebf;fontSize=14;" vertex="1" parent="1">
          <mxGeometry x="190" y="400" width="70" height="50" as="geometry" />
        </mxCell>
        <mxCell id="OQFdeBzDbGrKhD_iRUs_-10" value="目录项" style="rounded=1;whiteSpace=wrap;html=1;fillColor=#dae8fc;strokeColor=#6c8ebf;fontSize=14;" vertex="1" parent="1">
          <mxGeometry x="400" y="110" width="160" height="40" as="geometry" />
        </mxCell>
        <mxCell id="OQFdeBzDbGrKhD_iRUs_-11" value="父目录" style="rounded=1;whiteSpace=wrap;html=1;fillColor=#dae8fc;strokeColor=#6c8ebf;fontSize=14;" vertex="1" parent="1">
          <mxGeometry x="400" y="150" width="160" height="40" as="geometry" />
        </mxCell>
        <mxCell id="OQFdeBzDbGrKhD_iRUs_-12" value="file1" style="rounded=1;whiteSpace=wrap;html=1;fillColor=#dae8fc;strokeColor=#6c8ebf;fontSize=14;" vertex="1" parent="1">
          <mxGeometry x="400" y="190" width="160" height="60" as="geometry" />
        </mxCell>
        <mxCell id="OQFdeBzDbGrKhD_iRUs_-13" value="......" style="rounded=1;whiteSpace=wrap;html=1;fillColor=#dae8fc;strokeColor=#6c8ebf;fontSize=14;" vertex="1" parent="1">
          <mxGeometry x="400" y="247" width="160" height="40" as="geometry" />
        </mxCell>
        <mxCell id="OQFdeBzDbGrKhD_iRUs_-14" value="索引节点指针" style="rounded=1;whiteSpace=wrap;html=1;fillColor=#dae8fc;strokeColor=#6c8ebf;fontSize=14;" vertex="1" parent="1">
          <mxGeometry x="400" y="287" width="160" height="40" as="geometry" />
        </mxCell>
        <mxCell id="OQFdeBzDbGrKhD_iRUs_-15" value="目录项" style="rounded=1;whiteSpace=wrap;html=1;fillColor=#dae8fc;strokeColor=#6c8ebf;fontSize=14;" vertex="1" parent="1">
          <mxGeometry x="400" y="430" width="160" height="40" as="geometry" />
        </mxCell>
        <mxCell id="OQFdeBzDbGrKhD_iRUs_-16" value="父目录" style="rounded=1;whiteSpace=wrap;html=1;fillColor=#dae8fc;strokeColor=#6c8ebf;fontSize=14;" vertex="1" parent="1">
          <mxGeometry x="400" y="470" width="160" height="40" as="geometry" />
        </mxCell>
        <mxCell id="OQFdeBzDbGrKhD_iRUs_-17" value="file2" style="rounded=1;whiteSpace=wrap;html=1;fillColor=#dae8fc;strokeColor=#6c8ebf;fontSize=14;" vertex="1" parent="1">
          <mxGeometry x="400" y="510" width="160" height="60" as="geometry" />
        </mxCell>
        <mxCell id="OQFdeBzDbGrKhD_iRUs_-18" value="......" style="rounded=1;whiteSpace=wrap;html=1;fillColor=#dae8fc;strokeColor=#6c8ebf;fontSize=14;" vertex="1" parent="1">
          <mxGeometry x="400" y="571" width="160" height="40" as="geometry" />
        </mxCell>
        <mxCell id="OQFdeBzDbGrKhD_iRUs_-19" value="索引节点指针" style="rounded=1;whiteSpace=wrap;html=1;fillColor=#dae8fc;strokeColor=#6c8ebf;fontSize=14;" vertex="1" parent="1">
          <mxGeometry x="400" y="611" width="160" height="40" as="geometry" />
        </mxCell>
        <mxCell id="OQFdeBzDbGrKhD_iRUs_-20" value="超级块" style="rounded=1;whiteSpace=wrap;html=1;fillColor=#ffe6cc;strokeColor=#d79b00;fontSize=14;" vertex="1" parent="1">
          <mxGeometry x="669" y="110" width="140" height="66" as="geometry" />
        </mxCell>
        <mxCell id="OQFdeBzDbGrKhD_iRUs_-21" value="索引节点区" style="rounded=1;whiteSpace=wrap;html=1;fillColor=#fff2cc;strokeColor=#d6b656;fontSize=14;" vertex="1" parent="1">
          <mxGeometry x="669" y="177" width="140" height="50" as="geometry" />
        </mxCell>
        <mxCell id="OQFdeBzDbGrKhD_iRUs_-22" value="索引节点1" style="rounded=1;whiteSpace=wrap;html=1;fillColor=#f8cecc;strokeColor=#b85450;fontSize=14;" vertex="1" parent="1">
          <mxGeometry x="669" y="227" width="140" height="50" as="geometry" />
        </mxCell>
        <mxCell id="OQFdeBzDbGrKhD_iRUs_-23" value="索引节点3" style="rounded=1;whiteSpace=wrap;html=1;fillColor=#f8cecc;strokeColor=#b85450;fontSize=14;" vertex="1" parent="1">
          <mxGeometry x="669" y="329" width="140" height="50" as="geometry" />
        </mxCell>
        <mxCell id="OQFdeBzDbGrKhD_iRUs_-24" value="索引节点2" style="rounded=1;whiteSpace=wrap;html=1;fillColor=#f8cecc;strokeColor=#b85450;fontSize=14;" vertex="1" parent="1">
          <mxGeometry x="669" y="278" width="140" height="50" as="geometry" />
        </mxCell>
        <mxCell id="OQFdeBzDbGrKhD_iRUs_-25" value="数据块区" style="rounded=1;whiteSpace=wrap;html=1;fillColor=#fad9d5;strokeColor=#ae4132;fontSize=14;" vertex="1" parent="1">
          <mxGeometry x="669" y="400" width="140" height="70" as="geometry" />
        </mxCell>
        <mxCell id="OQFdeBzDbGrKhD_iRUs_-26" value="逻辑块3" style="rounded=1;whiteSpace=wrap;html=1;fillColor=#e1d5e7;strokeColor=#9673a6;fontSize=14;" vertex="1" parent="1">
          <mxGeometry x="669" y="470" width="140" height="50" as="geometry" />
        </mxCell>
        <mxCell id="OQFdeBzDbGrKhD_iRUs_-27" value="逻辑块2" style="rounded=1;whiteSpace=wrap;html=1;fillColor=#e1d5e7;strokeColor=#9673a6;fontSize=14;" vertex="1" parent="1">
          <mxGeometry x="669" y="521" width="140" height="50" as="geometry" />
        </mxCell>
        <mxCell id="OQFdeBzDbGrKhD_iRUs_-28" value="逻辑块1" style="rounded=1;whiteSpace=wrap;html=1;fillColor=#e1d5e7;strokeColor=#9673a6;fontSize=14;" vertex="1" parent="1">
          <mxGeometry x="669" y="571" width="140" height="50" as="geometry" />
        </mxCell>
        <mxCell id="OQFdeBzDbGrKhD_iRUs_-29" value="" style="rounded=1;whiteSpace=wrap;html=1;fontSize=14;fillColor=#E1D5E7;strokeColor=#56517e;" vertex="1" parent="1">
          <mxGeometry x="669" y="620" width="140" height="50" as="geometry" />
        </mxCell>
        <mxCell id="OQFdeBzDbGrKhD_iRUs_-31" value="" style="rounded=1;whiteSpace=wrap;html=1;fillColor=#f5f5f5;strokeColor=#666666;fontSize=14;fontColor=#333333;" vertex="1" parent="1">
          <mxGeometry x="669" y="380" width="140" height="20" as="geometry" />
        </mxCell>
        <mxCell id="OQFdeBzDbGrKhD_iRUs_-32" value="" style="endArrow=classic;startArrow=none;html=1;rounded=0;exitX=1;exitY=0.5;exitDx=0;exitDy=0;entryX=0;entryY=0.5;entryDx=0;entryDy=0;edgeStyle=orthogonalEdgeStyle;startFill=0;fontSize=14;" edge="1" parent="1" source="OQFdeBzDbGrKhD_iRUs_-7" target="OQFdeBzDbGrKhD_iRUs_-10">
          <mxGeometry width="50" height="50" relative="1" as="geometry">
            <mxPoint x="300" y="410" as="sourcePoint" />
            <mxPoint x="350" y="360" as="targetPoint" />
            <Array as="points">
              <mxPoint x="350" y="370" />
              <mxPoint x="350" y="130" />
            </Array>
          </mxGeometry>
        </mxCell>
        <mxCell id="OQFdeBzDbGrKhD_iRUs_-33" value="" style="endArrow=classic;html=1;rounded=0;exitX=1;exitY=0.5;exitDx=0;exitDy=0;edgeStyle=orthogonalEdgeStyle;entryX=0;entryY=0.5;entryDx=0;entryDy=0;fontSize=14;" edge="1" parent="1" source="OQFdeBzDbGrKhD_iRUs_-8" target="OQFdeBzDbGrKhD_iRUs_-15">
          <mxGeometry width="50" height="50" relative="1" as="geometry">
            <mxPoint x="270" y="430" as="sourcePoint" />
            <mxPoint x="390" y="450" as="targetPoint" />
            <Array as="points">
              <mxPoint x="350" y="425" />
              <mxPoint x="350" y="450" />
            </Array>
          </mxGeometry>
        </mxCell>
        <mxCell id="OQFdeBzDbGrKhD_iRUs_-34" value="" style="endArrow=classic;html=1;rounded=0;entryX=1;entryY=0.5;entryDx=0;entryDy=0;exitX=0;exitY=0.5;exitDx=0;exitDy=0;edgeStyle=orthogonalEdgeStyle;dashed=1;fontSize=14;" edge="1" parent="1" source="OQFdeBzDbGrKhD_iRUs_-11" target="OQFdeBzDbGrKhD_iRUs_-1">
          <mxGeometry width="50" height="50" relative="1" as="geometry">
            <mxPoint x="410" y="330" as="sourcePoint" />
            <mxPoint x="460" y="280" as="targetPoint" />
            <Array as="points">
              <mxPoint x="310" y="170" />
              <mxPoint x="310" y="265" />
            </Array>
          </mxGeometry>
        </mxCell>
        <mxCell id="OQFdeBzDbGrKhD_iRUs_-35" value="" style="endArrow=none;html=1;rounded=0;exitX=0;exitY=0.5;exitDx=0;exitDy=0;edgeStyle=orthogonalEdgeStyle;endFill=0;dashed=1;fontSize=14;" edge="1" parent="1" source="OQFdeBzDbGrKhD_iRUs_-16">
          <mxGeometry width="50" height="50" relative="1" as="geometry">
            <mxPoint x="410" y="430" as="sourcePoint" />
            <mxPoint x="310" y="260" as="targetPoint" />
          </mxGeometry>
        </mxCell>
        <mxCell id="OQFdeBzDbGrKhD_iRUs_-36" value="" style="endArrow=classic;html=1;rounded=0;entryX=0;entryY=0.5;entryDx=0;entryDy=0;exitX=1;exitY=0.5;exitDx=0;exitDy=0;edgeStyle=orthogonalEdgeStyle;fontSize=14;" edge="1" parent="1" source="OQFdeBzDbGrKhD_iRUs_-14" target="OQFdeBzDbGrKhD_iRUs_-22">
          <mxGeometry width="50" height="50" relative="1" as="geometry">
            <mxPoint x="410" y="430" as="sourcePoint" />
            <mxPoint x="460" y="380" as="targetPoint" />
            <Array as="points">
              <mxPoint x="600" y="307" />
              <mxPoint x="600" y="252" />
            </Array>
          </mxGeometry>
        </mxCell>
        <mxCell id="OQFdeBzDbGrKhD_iRUs_-37" value="" style="endArrow=classic;html=1;rounded=0;exitX=1;exitY=0.5;exitDx=0;exitDy=0;entryX=0;entryY=0.5;entryDx=0;entryDy=0;edgeStyle=orthogonalEdgeStyle;fontSize=14;" edge="1" parent="1" source="OQFdeBzDbGrKhD_iRUs_-19" target="OQFdeBzDbGrKhD_iRUs_-24">
          <mxGeometry width="50" height="50" relative="1" as="geometry">
            <mxPoint x="410" y="530" as="sourcePoint" />
            <mxPoint x="610" y="450" as="targetPoint" />
          </mxGeometry>
        </mxCell>
        <mxCell id="OQFdeBzDbGrKhD_iRUs_-38" value="" style="endArrow=classic;html=1;rounded=0;exitX=0.5;exitY=1;exitDx=0;exitDy=0;entryX=0;entryY=0.5;entryDx=0;entryDy=0;edgeStyle=orthogonalEdgeStyle;fontSize=14;" edge="1" parent="1" source="OQFdeBzDbGrKhD_iRUs_-5" target="OQFdeBzDbGrKhD_iRUs_-23">
          <mxGeometry width="50" height="50" relative="1" as="geometry">
            <mxPoint x="200" y="660" as="sourcePoint" />
            <mxPoint x="641" y="370" as="targetPoint" />
            <Array as="points">
              <mxPoint x="180" y="670" />
              <mxPoint x="640" y="670" />
              <mxPoint x="640" y="354" />
            </Array>
          </mxGeometry>
        </mxCell>
        <mxCell id="OQFdeBzDbGrKhD_iRUs_-39" value="" style="curved=1;endArrow=classic;html=1;rounded=0;exitX=1;exitY=0.5;exitDx=0;exitDy=0;entryX=1;entryY=0.5;entryDx=0;entryDy=0;fontSize=14;" edge="1" parent="1" source="OQFdeBzDbGrKhD_iRUs_-23" target="OQFdeBzDbGrKhD_iRUs_-26">
          <mxGeometry width="50" height="50" relative="1" as="geometry">
            <mxPoint x="837" y="350" as="sourcePoint" />
            <mxPoint x="887" y="300" as="targetPoint" />
            <Array as="points">
              <mxPoint x="840" y="400" />
            </Array>
          </mxGeometry>
        </mxCell>
        <mxCell id="OQFdeBzDbGrKhD_iRUs_-40" value="" style="curved=1;endArrow=classic;html=1;rounded=0;entryX=1;entryY=0.5;entryDx=0;entryDy=0;fontSize=14;" edge="1" parent="1" target="OQFdeBzDbGrKhD_iRUs_-27">
          <mxGeometry width="50" height="50" relative="1" as="geometry">
            <mxPoint x="810" y="300" as="sourcePoint" />
            <mxPoint x="850" y="230" as="targetPoint" />
            <Array as="points">
              <mxPoint x="890" y="390" />
            </Array>
          </mxGeometry>
        </mxCell>
        <mxCell id="OQFdeBzDbGrKhD_iRUs_-41" value="" style="curved=1;endArrow=classic;html=1;rounded=0;exitX=1;exitY=0.5;exitDx=0;exitDy=0;entryX=1;entryY=0.5;entryDx=0;entryDy=0;fontSize=14;" edge="1" parent="1" source="OQFdeBzDbGrKhD_iRUs_-22" target="OQFdeBzDbGrKhD_iRUs_-28">
          <mxGeometry width="50" height="50" relative="1" as="geometry">
            <mxPoint x="840" y="255" as="sourcePoint" />
            <mxPoint x="890" y="205" as="targetPoint" />
            <Array as="points">
              <mxPoint x="860" y="320" />
              <mxPoint x="890" y="440" />
            </Array>
          </mxGeometry>
        </mxCell>
      </root>
    </mxGraphModel>
  </diagram>
</mxfile>
